<svg xmlns="http://www.w3.org/2000/svg" width="512" height="512" viewBox="0 0 135.47 135.47"><circle cx="67.733" cy="67.733" r="67.733" fill="#fff" style="-inkscape-stroke:none"/><g stroke-width=".943"><path fill="#ffff80" d="M18.494 42.721a2.001 2.001 0 0 0-1.92 2.089l.638 15.029 18.038-.765a9.98 9.98 0 0 0-1.752 6.096 9.982 9.982 0 0 0 2.262 5.927l-18.038.765.085 2.004 100.19-4.25-.085-2.003-18.038.765a9.987 9.987 0 0 0 1.753-6.097 9.979 9.979 0 0 0-2.262-5.926l18.037-.765-.637-15.029a2.001 2.001 0 0 0-2.089-1.919zm24.768 16.013a6.017 6.017 0 0 1 6.266 5.756 6.017 6.017 0 0 1-5.756 6.267A6.017 6.017 0 0 1 37.506 65a6.017 6.017 0 0 1 5.756-6.266zm11.021-.468 26.05-1.104.509 12.023-26.049 1.104zm37.072-1.572a6.017 6.017 0 0 1 6.266 5.757 6.017 6.017 0 0 1-5.756 6.266 6.017 6.017 0 0 1-6.266-5.756 6.017 6.017 0 0 1 5.756-6.267z" style="-inkscape-stroke:none;font-variation-settings:normal"/><path fill="#ff4cff" d="m17.212 59.839.509 12.023 18.039-.765a9.982 9.982 0 0 1-2.262-5.927 9.984 9.984 0 0 1 1.752-6.096zm82.154-3.484a9.98 9.98 0 0 1 2.262 5.926 9.977 9.977 0 0 1-1.753 6.097l18.039-.765-.51-12.023z"/><path fill="maroon" d="m54.283 58.266.509 12.023 10.173-.432a22.062 22.062 0 0 0 .594-6.047 22.062 22.062 0 0 0-1.096-5.976z" style="-inkscape-stroke:none;font-variation-settings:normal"/><path fill="#80ff80" d="m17.806 73.866 100.19-4.248.467 11.02-100.19 4.249z" style="-inkscape-stroke:none"/><path fill="#2420c6" d="M108.48 40.235a.703.703 0 0 0-.452.187l-.01.009c-.151.16-.128.248-.142.352a2.916 2.916 0 0 0-.017.366c0 .288.022.678.062 1.18.05.608.16 1.625.33 3.058v.001c.107.879.195 1.554.27 2.03.038.238.07.426.102.57.03.144.017.203.122.367.137.213.35.348.6.444.218.087.437.132.654.115a.537.537 0 0 0 .33-.12.518.518 0 0 0 .155-.44l-.244-1.61c.872.376 1.699.731 2.083.825.355.087.706.117 1.05.089a.803.803 0 0 0 .312-.077l.013-.007.013-.007a.49.49 0 0 0 .217-.35.796.796 0 0 0-.02-.285c-.07-.34-.306-.447-.579-.59a7.437 7.437 0 0 0-1.11-.437l-1.231-.402c.42-.433.89-.908 1.672-1.64v-.002c.521-.488 1.05-.968 1.583-1.44l-.01.008a.428.428 0 0 0 .144-.207.419.419 0 0 0-.014-.255c-.064-.225-.209-.325-.365-.42-.17-.114-.336-.206-.565-.187h-.01l-.008.001c-.64.089-1.299.589-2.183 1.436l-.006.005-.005.004-1.23 1.271c-.047-.366-.097-.68-.128-1.268-.037-.889-.091-1.513-.172-1.917-.056-.294-.278-.411-.491-.503a1.568 1.568 0 0 0-.533-.151 1.141 1.141 0 0 0-.188-.003zm-3.04.222c-.79.065-1.521.582-2.211 1.445-.605.753-1.097 1.651-1.48 2.688-.381 1.035-.558 1.9-.5 2.624.057.686.294 1.274.722 1.703.462.47 1.101.68 1.806.623a1.69 1.69 0 0 0 .585-.149c.58-.273 1.156-.68 1.736-1.216.33-.304.578-.58.747-.848.167-.27.268-.551.204-.844a.875.875 0 0 0-.242-.469.705.705 0 0 0-.523-.175.643.643 0 0 0-.49.315l-.004.007c-.14.284-.522.696-1.154 1.159-.635.454-1.13.667-1.39.688-.034.003-.027.002-.037 0a4.934 4.934 0 0 1-.07-.262c-.139-.69-.01-1.541.431-2.562.352-.808.846-1.606 1.485-2.395l.001-.001c.557-.694 1.012-1.075 1.122-1.118.108-.04.2-.114.264-.211a.52.52 0 0 0 .063-.359c-.047-.252-.23-.387-.415-.485a1.114 1.114 0 0 0-.651-.157zm-17.739.136c-.047 0-.094.001-.141.006h-.001c-1.311.106-2.48.32-3.507.647l-.006.003-.008.003c-.563.207-1.129.411-1.7.612l-.478.063-.014.002-.014.003a1.284 1.284 0 0 0-.41.141.49.49 0 0 0-.258.503v.005l.002.006c.072.34.349.5.662.627.265.116.508.183.756.164.262-.022.59-.117 1.082-.281v-.001l.274-.092.011.27c.022.54.06 1.367.112 2.483.113 2.336.207 3.994.288 4.981.024.28.044.501.066.67.02.168.02.249.075.39l.004.007c.098.234.252.438.462.566s.462.173.714.15a.892.892 0 0 0 .284-.059c.1-.04.264-.164.285-.363l.004-.029v-.11l-.01-.245c-.01-.21-.027-.514-.05-.915-.07-1.191-.142-2.381-.217-3.572-.095-1.546-.16-2.727-.19-3.537a25.34 25.34 0 0 1-.024-.936c0-.085.002-.14.004-.194.04-.018.073-.035.14-.06.204-.075.518-.172.935-.288h.002l.002-.001c.424-.123.747-.221.976-.3.114-.038.204-.07.28-.104a.928.928 0 0 0 .108-.054c.034-.02.082-.046.145-.144a.575.575 0 0 0 .09-.435.735.735 0 0 0-.32-.469.825.825 0 0 0-.412-.113zm-3.424 1.917.014.165c0 .036.004.12.006.166l-.156-.006-.06-.045-.1-.098-.012-.018-.021-.05v-.003l.33-.11zm13.13.094c-.641.053-1.215.434-1.697 1.053v.002c-.608.789-.815 1.79-.641 2.92.091.625.378 1.178.838 1.614.493.473 1.1.711 1.736.66.72-.06 1.342-.517 1.829-1.256h.001c.493-.745.718-1.524.635-2.298v-.002c-.068-.603-.207-1.118-.43-1.546v-.003h-.001c-.312-.582-.834-.934-1.42-.906a1.316 1.316 0 0 0-.85-.238zm-6.321.176c-.321.01-.673.028-1.057.06a17 17 0 0 0-2.232.328.413.413 0 0 0-.264.18.522.522 0 0 0-.072.156 1.52 1.52 0 0 0-.049.294c-.019.22-.02.518-.011.907.014.707.064 1.425.15 2.152.061.532.18 1.103.355 1.714.194.739.388 1.257.667 1.603.206.268.557.407.896.379a.904.904 0 0 0 .435-.13c.125-.08.212-.24.244-.392a.506.506 0 0 0-.007-.277c-.04-.192-.115-.398-.271-.83-.014-.038-.006-.039-.017-.074.27.121.486.192.845.4.7.407 1.117.641 1.38.741l.004.001.003.001c.152.056.317.073.481.06.203-.018.398-.074.572-.173l.009-.006a.844.844 0 0 0 .24-.2.528.528 0 0 0 .098-.387.54.54 0 0 0-.3-.379l.032.015c-.925-.482-1.482-.77-2.036-1.056.823-.358 1.602-.772 2.3-1.29.456-.34.804-.653 1.05-.959.245-.305.402-.616.39-.954-.016-.497-.373-.896-.898-1.227h-.004a4.473 4.473 0 0 0-1.237-.526 4.496 4.496 0 0 0-.823-.12 9.758 9.758 0 0 0-.873-.01zm-10.201.454c-1.115.092-2.355.505-3.737 1.222l-.003.001c-1.169.6-1.934 1.088-2.342 1.58l-.002.003h-.002c-.255.317-.266.74-.169 1.21.066.317.142.568.35.762.38.354.967.557 1.784.716l.01.002.007.002c.652.094 1.303.193 1.955.297h.006c.25.036.405.075.55.113a7.247 7.247 0 0 1-.961.506c-.51.229-.897.41-1.167.544-.135.068-.24.122-.32.17a1.463 1.463 0 0 0-.114.073c-.035.026-.076.02-.147.17l-.004.01-.004.01a.498.498 0 0 0-.032.23l.002.015.003.016c.036.208.17.312.286.386.115.073.243.123.399.174l.006.003.007.001c.316.09.607.132.881.108a.912.912 0 0 0 .222-.04c.39-.117.901-.38 1.606-.798.665-.39 1.053-.628 1.281-.868h.002v-.002a.796.796 0 0 0 .179-.678v-.005l-.003-.004c-.062-.273-.22-.516-.446-.77-.188-.213-.357-.368-.561-.465-.108-.056-.172-.066-.29-.097-.163-.04-.326-.076-.489-.11a69.2 69.2 0 0 0-1.709-.323 27.954 27.954 0 0 1-1.53-.307c-.069-.017-.094-.028-.147-.042.063-.07.128-.142.264-.24.355-.258.948-.58 1.76-.942 1.5-.666 2.564-1.012 3.061-1.053.301-.024.489.019.547.051l.009.005.007.003a.679.679 0 0 0 .361.062c.169-.014.332-.066.485-.148l.01-.005.008-.006a.806.806 0 0 0 .214-.173.478.478 0 0 0 .103-.398.87.87 0 0 0-.374-.521 2.283 2.283 0 0 0-.663-.296h-.003a4.022 4.022 0 0 0-.747-.15 2.345 2.345 0 0 0-.4-.004zm10.312.916c.251-.004.493.002.73.016.396.025.691.08.858.14.08.028.118.05.134.061-.015.037-.066.18-.265.39-.25.265-.673.61-1.26 1.013-.842.578-1.453.907-1.91 1.1-.024-.164-.058-.318-.072-.493a9.262 9.262 0 0 1 .047-2.061c.31-.051.623-.1.967-.129.264-.02.522-.033.773-.037zm-26.714.041c-.186 0-.374.01-.561.024a9.937 9.937 0 0 0-1.911.36.432.432 0 0 0-.29.27.981.981 0 0 0-.064.244 4.27 4.27 0 0 0-.037.654c-.001.543.04 1.32.124 2.347.163 1.998.323 3.235.553 3.866l.001.007c.1.257.302.438.558.6.247.155.443.272.723.248a.439.439 0 0 0 .222-.08.443.443 0 0 0 .16-.238l.013-.053-.002-.055c-.04-.66-.095-1.32-.163-1.98 1.06-.377 2.066-.889 2.995-1.522l.002-.001c1.225-.81 1.976-1.503 2.182-2.271a.715.715 0 0 0 .02-.368c-.131-.613-.715-1.026-1.594-1.42a7.099 7.099 0 0 0-2.375-.612 6.94 6.94 0 0 0-.557-.019zm33.548.146a.427.427 0 0 1 .07 0c.068.006.133.026.2.046.03.16.031.459-.026.864v.006c-.05.398-.132.71-.228.923v.003l-.001.002c-.08.181-.239.38-.498.586-.257.195-.473.282-.641.295-.122.01-.16-.009-.197-.04-.036-.03-.087-.104-.12-.267v-.005c-.087-.398.01-.896.363-1.514v-.001c.356-.619.708-.867 1.078-.898zm-26.528.382c-.64.053-1.215.436-1.696 1.055h-.002c-.606.79-.814 1.792-.638 2.921.09.625.377 1.178.836 1.614.494.473 1.1.711 1.737.66.72-.059 1.342-.517 1.83-1.255.494-.745.719-1.524.635-2.3v-.001c-.068-.602-.206-1.117-.43-1.546v-.004c-.312-.58-.835-.932-1.421-.905a1.316 1.316 0 0 0-.85-.239zm-6.633 1.02c.21 0 .412.01.607.028.65.06 1.221.218 1.718.467a1.747 1.747 0 0 1-.267.32c-.276.274-.735.636-1.366 1.064-.857.585-1.457.927-1.904 1.143l-.186-2.898c.255-.037.513-.077.747-.097.224-.019.442-.027.651-.027zm7.258.714h.001a.427.427 0 0 1 .07 0c.068.006.133.026.2.046.03.162.031.459-.026.864v.006c-.05.4-.131.709-.228.924l-.001.001-.001.002c-.08.181-.238.382-.497.588-.258.195-.474.281-.641.295-.123.009-.16-.01-.197-.04-.036-.032-.088-.105-.12-.268l-.002-.004c-.086-.4.01-.896.364-1.515.356-.62.708-.867 1.078-.898zm7.385 2.628c0 .003.005.008.006.012l-.007-.006c0-.006.002 0 .002-.007z" color="#000" style="-inkscape-stroke:none;font-variation-settings:&quot;wght&quot;900"/><path d="m12.099 33.958-1.918 2.089 2.889 68.132 2.089 1.918 15.344-.65 2.916-16.43 69.666-2.95 4.631 16.104 15.651-.663 1.92-2.09-2.89-68.131-2.09-1.918zm1.065 1.461a1.504 1.504 0 1 1 .13 3.005 1.504 1.504 0 0 1-.129-3.005zm106.2-4.504a1.504 1.504 0 1 1 .128 3.004 1.504 1.504 0 0 1-.127-3.005zM18.484 42.72l96.184-4.08a2.001 2.001 0 0 1 2.09 1.92l1.7 40.077-100.19 4.25-1.7-40.078a2.001 2.001 0 0 1 1.92-2.09zm24.6 12.005a10.006 10.006 0 0 0-9.595 10.444 10.007 10.007 0 0 0 10.444 9.595l48.092-2.04a10.006 10.006 0 0 0 9.595-10.444 10.006 10.006 0 0 0-10.445-9.595zm.169 4.007a6.017 6.017 0 0 1 6.266 5.757 6.017 6.017 0 0 1-5.756 6.266A6.017 6.017 0 0 1 37.496 65a6.017 6.017 0 0 1 5.757-6.267zm11.02-.466 26.05-1.105.51 12.023-26.05 1.105zm37.073-1.573a6.017 6.017 0 0 1 6.266 5.756 6.017 6.017 0 0 1-5.756 6.267 6.017 6.017 0 0 1-6.267-5.757 6.017 6.017 0 0 1 5.757-6.266zm-57.09 33.291-2.737 15.417 75.156-3.187-4.347-15.113zm34.466 1.292a2.006 2.006 0 1 1 .17 4.009 2.006 2.006 0 0 1-.17-4.008zm-17.864 4.773a2.006 2.006 0 1 1 .17 4.008 2.006 2.006 0 0 1-.17-4.008zm36.069-1.53a2.006 2.006 0 1 1 .17 4.008 2.006 2.006 0 0 1-.17-4.008zm-45.023 3.415a2.006 2.006 0 1 1 .17 4.008 2.006 2.006 0 0 1-.17-4.008zm54.104-2.294a2.006 2.006 0 1 1 .17 4.008 2.006 2.006 0 0 1-.17-4.008zm-80.048 5.905a1.504 1.504 0 1 1 .127 3.006 1.505 1.505 0 0 1-.127-3.007zm106.2-4.504a1.504 1.504 0 1 1 .127 3.005 1.504 1.504 0 0 1-.127-3.005z"/><path fill="#666" d="m33.419 89.018-2.916 16.429 1.027-.043 2.735-15.417 68.072-2.883 4.349 15.112 1.03-.043-4.632-16.104z"/></g><circle cx="13.081" cy="55.713" r="7.176" fill="#2420c6" style="-inkscape-stroke:none" transform="rotate(-15)"/><path fill="#ffff80" d="m28.001 49.047 3.152 5.237a3.045 3.268 75 0 0 1.55-1.884 3.045 3.268 75 0 0-2.232-3.708 3.045 3.268 75 0 0-2.47.355z" style="-inkscape-stroke:none"/><path fill="#80ff80" d="m25.434 55.816.111-6.112a3.045 3.268 75 0 0-2.316.928 3.045 3.268 75 0 0-.079 4.327 3.045 3.268 75 0 0 2.284.857z" style="-inkscape-stroke:none"/><path fill="#ff4cff" d="M25.705 45.218c-1.407.377-3.05 1.402-3.736 2.53a5.046 5.046 0 0 0-.677 1.842c-.101.652 1.874 2.397 2.054 3.07l.873-.763c-.175-.644-1.505-2.54-1.152-3.126.74-1.217 5.45-2.48 6.7-1.795.6.33.398 2.635.571 3.282l1.131.226c-.224-.681.58-3.18.145-3.688a5.348 5.348 0 0 0-1.54-1.234c-1.158-.62-3.05-.677-4.37-.344z" style="-inkscape-stroke:none"/></svg>