<svg xmlns="http://www.w3.org/2000/svg" viewBox="0 0 48 48"><circle cx="24" cy="24" r="24" fill="#241fc7" style="-inkscape-stroke:none"/><path fill="#ffff80" d="M28.251 20.354 33.9 40a10.928 10.183 0 0 0 6.636-4.744 10.928 10.183 0 0 0-4-13.91 10.928 10.183 0 0 0-8.285-.992z" style="-inkscape-stroke:none"/><path fill="#80ff80" d="m14.1 40 5.649-19.646a10.928 10.183 0 0 0-8.285.991 10.928 10.183 0 0 0-4 13.911A10.928 10.183 0 0 0 14.1 40z" style="-inkscape-stroke:none"/><path fill="#ff4cff" d="M24.148 6c-4.87 0-11.067 1.888-14.259 4.941a16.878 16.878 0 0 0-3.78 5.363C5.217 18.322 10.086 25.67 10.086 28l3.48-1.71c-.007-2.234-2.662-9.509-1.016-11.095 3.443-3.294 19.753-3.294 23.197 0 1.653 1.582-.993 8.857-.994 11.095L38.21 28c-.134-2.395 4.628-9.769 3.66-11.79a17.886 17.886 0 0 0-3.905-5.319C34.76 7.888 28.697 6.065 24.148 6z" style="-inkscape-stroke:none"/></svg>